<svg width="88" height="88" viewBox="0 0 88 88" fill="none" xmlns="http://www.w3.org/2000/svg">
<path d="M44.5045 86C44.3804 86 44.2563 85.9994 44.1322 85.9981C32.9454 85.9012 22.5083 81.4559 14.7442 73.4809C6.97303 65.4989 2.80442 54.9352 3.00705 43.7357C3.20463 32.811 7.60881 22.5722 15.4078 14.9049C23.2169 7.22814 33.5488 3 44.5001 3C55.5856 3 66.0074 7.3168 73.8457 15.155C81.6839 22.9933 86.0001 33.4151 86.0001 44.5V44.5982C85.995 46.9 85.0635 49.0441 83.3778 50.6291C81.6877 52.2179 79.3846 53.0494 77.0594 52.9107C76.8048 52.8955 76.5458 52.8873 76.29 52.8873C69.2908 52.8873 63.5967 58.5807 63.5967 65.5793C63.5967 65.7598 63.6005 65.9466 63.6087 66.1327C63.8316 71.3519 61.9674 76.3159 58.3592 80.1083C54.7801 83.8704 49.9643 85.9626 44.799 85.9994C44.7008 86 44.6027 86 44.5045 86V86ZM44.5001 6.24219C34.4043 6.24219 24.8798 10.1398 17.6805 17.2169C10.4907 24.2857 6.43098 33.7242 6.24861 43.7939C6.0618 54.1221 9.9043 63.8619 17.0669 71.2189C24.2231 78.5696 33.8452 82.6666 44.1607 82.7559C44.3665 82.7584 44.5716 82.7584 44.7768 82.7572C49.0531 82.7268 53.0431 80.9923 56.0105 77.8736C59.0063 74.7245 60.5546 70.6034 60.3691 66.2701C60.3596 66.0378 60.3545 65.8054 60.3545 65.5793C60.3545 56.7931 67.5032 49.6451 76.29 49.6451C76.6098 49.6451 76.934 49.6552 77.2525 49.6742C78.7128 49.7622 80.0989 49.2613 81.1564 48.2665C82.1861 47.2989 82.7547 45.9919 82.7579 44.5855V44.5C82.7579 34.2808 78.7786 24.6733 71.5527 17.448C64.3275 10.2221 54.7199 6.24219 44.5001 6.24219V6.24219Z" fill="#F7CD37"/>
<path d="M31.5195 74.3269C26.1566 74.3269 21.793 69.9639 21.793 64.6003C21.793 59.2374 26.1566 54.8738 31.5195 54.8738C36.8831 54.8738 41.2461 59.2374 41.2461 64.6003C41.2461 69.9639 36.8831 74.3269 31.5195 74.3269ZM31.5195 58.116C27.9443 58.116 25.0352 61.0251 25.0352 64.6003C25.0352 68.1762 27.9443 71.0847 31.5195 71.0847C35.0954 71.0847 38.0039 68.1762 38.0039 64.6003C38.0039 61.0251 35.0954 58.116 31.5195 58.116Z" fill="#F7CD37"/>
<path d="M20.0908 54.2651C14.7273 54.2651 10.3643 49.9021 10.3643 44.5386C10.3643 39.1757 14.7273 34.812 20.0908 34.812C25.4537 34.812 29.8174 39.1757 29.8174 44.5386C29.8174 49.9021 25.4537 54.2651 20.0908 54.2651ZM20.0908 38.0542C16.5155 38.0542 13.6064 40.9633 13.6064 44.5386C13.6064 48.1145 16.5155 51.023 20.0908 51.023C23.6661 51.023 26.5752 48.1145 26.5752 44.5386C26.5752 40.9633 23.6661 38.0542 20.0908 38.0542Z" fill="#F7CD37"/>
<path d="M31.1548 34.0825C25.7919 34.0825 21.4282 29.7195 21.4282 24.356C21.4282 18.993 25.7919 14.6294 31.1548 14.6294C36.5183 14.6294 40.8813 18.993 40.8813 24.356C40.8813 29.7195 36.5183 34.0825 31.1548 34.0825ZM31.1548 17.8716C27.5795 17.8716 24.6704 20.7807 24.6704 24.356C24.6704 27.9319 27.5795 30.8403 31.1548 30.8403C34.7307 30.8403 37.6392 27.9319 37.6392 24.356C37.6392 20.7807 34.7307 17.8716 31.1548 17.8716Z" fill="#F7CD37"/>
<path d="M55.9585 34.0015C50.595 34.0015 46.2319 29.6384 46.2319 24.2749C46.2319 18.912 50.595 14.5483 55.9585 14.5483C61.3214 14.5483 65.6851 18.912 65.6851 24.2749C65.6851 29.6384 61.3214 34.0015 55.9585 34.0015ZM55.9585 17.7905C52.3832 17.7905 49.4741 20.6996 49.4741 24.2749C49.4741 27.8508 52.3832 30.7593 55.9585 30.7593C59.5338 30.7593 62.4429 27.8508 62.4429 24.2749C62.4429 20.6996 59.5338 17.7905 55.9585 17.7905Z" fill="#F7CD37"/>
<path d="M58.2138 51.5151C57.8295 51.5151 57.4438 51.3796 57.1354 51.1041C56.468 50.5082 56.4085 49.4862 57.0031 48.8175C57.0879 48.7225 59.1194 46.4586 62.321 44.5133C66.6809 41.8645 71.1446 41.0723 75.229 42.2223C76.0908 42.4654 76.5924 43.3608 76.3498 44.2227C76.1073 45.0839 75.2113 45.586 74.3501 45.3435C66.5485 43.1468 59.4936 50.8964 59.4233 50.9749C59.1029 51.3327 58.659 51.5151 58.2138 51.5151V51.5151Z" fill="#F7CD37"/>
<path d="M56.0709 57.394C55.1755 57.394 54.4492 56.6677 54.4492 55.7729C54.4492 54.8775 55.1743 54.1518 56.0697 54.1518H56.0709C56.9663 54.1518 57.692 54.8775 57.692 55.7729C57.692 56.6677 56.9663 57.394 56.0709 57.394V57.394Z" fill="#F7CD37"/>
</svg>
