<svg width="90" height="90" viewBox="0 0 90 90" fill="none" xmlns="http://www.w3.org/2000/svg">
<g clip-path="url(#clip0)">
<path d="M45.504 87C45.3799 87 45.2558 86.9994 45.1317 86.9981C33.9449 86.9012 23.5078 82.4559 15.7437 74.4809C7.97255 66.4989 3.80393 55.9352 4.00657 44.7357C4.20414 33.811 8.60832 23.5722 16.4073 15.9049C24.2164 8.22814 34.5483 4 45.4996 4C56.5851 4 67.007 8.3168 74.8452 16.155C82.6834 23.9933 86.9996 34.4151 86.9996 45.5V45.5982C86.9945 47.9 86.063 50.0441 84.3773 51.6291C82.6872 53.2179 80.3841 54.0494 78.0589 53.9107C77.8043 53.8955 77.5453 53.8873 77.2895 53.8873C70.2903 53.8873 64.5962 59.5807 64.5962 66.5793C64.5962 66.7598 64.6 66.9466 64.6082 67.1327C64.8311 72.3519 62.9669 77.3159 59.3587 81.1083C55.7796 84.8704 50.9638 86.9626 45.7985 86.9994C45.7003 87 45.6022 87 45.504 87ZM45.4996 7.24219C35.4039 7.24219 25.8793 11.1398 18.68 18.2169C11.4902 25.2857 7.43049 34.7242 7.24812 44.7939C7.06131 55.1221 10.9038 64.8619 18.0664 72.2189C25.2226 79.5696 34.8447 83.6666 45.1602 83.7559C45.366 83.7584 45.5712 83.7584 45.7763 83.7572C50.0526 83.7268 54.0426 81.9923 57.01 78.8736C60.0059 75.7245 61.5541 71.6034 61.3686 67.2701C61.3591 67.0378 61.354 66.8054 61.354 66.5793C61.354 57.7931 68.5027 50.6451 77.2895 50.6451C77.6093 50.6451 77.9335 50.6552 78.252 50.6742C79.7123 50.7622 81.0984 50.2613 82.1559 49.2665C83.1856 48.2989 83.7542 46.9919 83.7574 45.5855V45.5C83.7574 35.2808 79.7781 25.6733 72.5522 18.448C65.327 11.2221 55.7195 7.24219 45.4996 7.24219Z" fill="white"/>
<path d="M32.519 75.3269C27.1561 75.3269 22.7925 70.9639 22.7925 65.6003C22.7925 60.2374 27.1561 55.8738 32.519 55.8738C37.8826 55.8738 42.2456 60.2374 42.2456 65.6003C42.2456 70.9639 37.8826 75.3269 32.519 75.3269ZM32.519 59.116C28.9438 59.116 26.0347 62.0251 26.0347 65.6003C26.0347 69.1762 28.9438 72.0847 32.519 72.0847C36.0949 72.0847 39.0034 69.1762 39.0034 65.6003C39.0034 62.0251 36.0949 59.116 32.519 59.116Z" fill="white"/>
<path d="M21.0903 55.2652C15.7268 55.2652 11.3638 50.9022 11.3638 45.5386C11.3638 40.1757 15.7268 35.8121 21.0903 35.8121C26.4532 35.8121 30.8169 40.1757 30.8169 45.5386C30.8169 50.9022 26.4532 55.2652 21.0903 55.2652ZM21.0903 39.0543C17.5151 39.0543 14.606 41.9634 14.606 45.5386C14.606 49.1145 17.5151 52.023 21.0903 52.023C24.6656 52.023 27.5747 49.1145 27.5747 45.5386C27.5747 41.9634 24.6656 39.0543 21.0903 39.0543Z" fill="white"/>
<path d="M32.1543 35.0826C26.7914 35.0826 22.4277 30.7195 22.4277 25.356C22.4277 19.9931 26.7914 15.6294 32.1543 15.6294C37.5178 15.6294 41.8809 19.9931 41.8809 25.356C41.8809 30.7195 37.5178 35.0826 32.1543 35.0826ZM32.1543 18.8716C28.579 18.8716 25.6699 21.7807 25.6699 25.356C25.6699 28.9319 28.579 31.8404 32.1543 31.8404C35.7302 31.8404 38.6387 28.9319 38.6387 25.356C38.6387 21.7807 35.7302 18.8716 32.1543 18.8716Z" fill="white"/>
<path d="M56.958 35.0015C51.5945 35.0015 47.2314 30.6385 47.2314 25.2749C47.2314 19.912 51.5945 15.5484 56.958 15.5484C62.3209 15.5484 66.6846 19.912 66.6846 25.2749C66.6846 30.6385 62.3209 35.0015 56.958 35.0015ZM56.958 18.7906C53.3827 18.7906 50.4736 21.6997 50.4736 25.2749C50.4736 28.8508 53.3827 31.7593 56.958 31.7593C60.5333 31.7593 63.4424 28.8508 63.4424 25.2749C63.4424 21.6997 60.5333 18.7906 56.958 18.7906Z" fill="white"/>
<path d="M59.2134 52.5151C58.829 52.5151 58.4433 52.3796 58.1349 52.1041C57.4675 51.5082 57.408 50.4862 58.0026 49.8175C58.0875 49.7225 60.1189 47.4586 63.3205 45.5133C67.6804 42.8645 72.1441 42.0723 76.2285 43.2223C77.0904 43.4654 77.5919 44.3608 77.3493 45.2227C77.1068 46.0839 76.2108 46.586 75.3496 46.3435C67.5481 44.1468 60.4931 51.8964 60.4228 51.9749C60.1024 52.3327 59.6585 52.5151 59.2134 52.5151Z" fill="white"/>
<path d="M57.0705 58.394C56.1751 58.394 55.4487 57.6677 55.4487 56.7729C55.4487 55.8775 56.1738 55.1518 57.0692 55.1518H57.0705C57.9659 55.1518 58.6916 55.8775 58.6916 56.7729C58.6916 57.6677 57.9659 58.394 57.0705 58.394Z" fill="white"/>
</g>
<defs>
<clipPath id="clip0">
<rect width="83" height="83" fill="white" transform="translate(4 4)"/>
</clipPath>
</defs>
</svg>
