<svg width="90" height="90" viewBox="0 0 90 90" fill="none" xmlns="http://www.w3.org/2000/svg">
<path d="M22.0835 40.6151C22.0835 41.0809 22.282 41.5246 22.6292 41.8348C22.763 41.9544 25.7935 44.6241 29.8967 45.3433C31.7971 47.4583 35.6716 48.7925 40.0734 48.7925C44.475 48.7925 48.3496 47.4583 50.2501 45.3433C54.3531 44.6242 57.3838 41.9544 57.5176 41.8348C57.8649 41.5246 58.0635 41.0809 58.0633 40.6151C58.0633 40.1493 57.8646 39.7058 57.5172 39.3954C57.3962 39.2873 55.1395 37.3015 51.9006 36.2905C53.7621 33.7773 54.7924 30.7115 54.7924 27.5315C54.7924 26.6283 54.0602 25.8961 53.157 25.8961C50.7092 25.8961 48.3005 26.5154 46.1654 27.6661C44.8939 23.1567 41.3425 19.9308 41.1644 19.7713C40.5434 19.2155 39.6035 19.2155 38.9826 19.7713C38.8045 19.931 35.25 23.1597 33.9802 27.6655C31.8453 26.5153 29.4371 25.8963 26.9898 25.8963C26.0866 25.8963 25.3544 26.6284 25.3544 27.5317C25.3544 30.7118 26.3849 33.7778 28.2462 36.2907C25.0073 37.3015 22.7508 39.2873 22.6296 39.3955C22.2822 39.7058 22.0835 40.1493 22.0835 40.6151ZM35.5996 44.924C37.5236 44.3153 39.0961 43.3661 40.0732 42.6794C41.0504 43.3661 42.6229 44.3155 44.5468 44.924C43.2933 45.2892 41.7759 45.5216 40.0732 45.5216C38.3706 45.5216 36.8534 45.2892 35.5996 44.924ZM48.2506 42.2507C46.9688 42.2507 45.7517 41.9303 44.6984 41.5046C46.337 40.9623 47.8763 40.1325 49.2419 39.0434C50.9507 39.2539 52.4887 39.9624 53.5922 40.614C51.9731 41.5697 50.1177 42.2507 48.2506 42.2507ZM47.6324 36.1269C46.6046 37.0323 45.4318 37.7364 44.1741 38.2192C45.3739 36.3721 46.496 33.9426 46.6039 31.2263C48.0413 30.2171 49.662 29.5657 51.3836 29.3014C50.9727 31.9258 49.656 34.3476 47.6324 36.1269ZM40.0732 23.3616C41.8358 25.418 43.3441 28.0948 43.3441 30.8026C43.3441 33.9183 41.3654 36.7358 40.0732 38.2435C38.7804 36.735 36.8023 33.9178 36.8023 30.8026C36.8025 28.0902 38.3174 25.4102 40.0732 23.3616ZM33.5427 31.2263C33.6507 33.9426 34.7726 36.3719 35.9725 38.2192C34.7147 37.7362 33.5418 37.032 32.5132 36.1261C30.4905 34.3476 29.1741 31.9258 28.763 29.3016C30.4846 29.5657 32.1053 30.2169 33.5427 31.2263ZM30.9049 39.0433C32.2707 40.1323 33.8098 40.9621 35.4482 41.5045C34.395 41.9302 33.1779 42.2507 31.8962 42.2507C30.0218 42.2507 28.1602 41.5658 26.552 40.6156C27.6561 39.9632 29.1949 39.2539 30.9049 39.0433Z" fill="#F7CD37"/>
<path d="M19.3034 14.9387C20.2066 14.9387 20.9389 14.2065 20.9389 13.3033C20.9389 12.4001 20.2066 11.6678 19.3034 11.6678C18.4002 11.6678 17.668 12.4001 17.668 13.3033C17.668 14.2065 18.4002 14.9387 19.3034 14.9387Z" fill="#F7CD37"/>
<path d="M22.0999 84.8681C22.0329 85.3375 22.1727 85.8127 22.4834 86.1709C22.794 86.5291 23.2449 86.7348 23.719 86.7348H49.8861C50.7894 86.7348 51.5216 86.0026 51.5216 85.0994C51.5216 81.6204 54.3792 77.5763 58.0634 77.5763H64.6052C68.8758 77.5763 72.3922 74.2858 72.752 70.1069L73.2617 69.5973C74.8136 68.0453 75.1065 65.7038 74.1401 63.8539C75.1155 63.2706 75.8497 62.376 76.2351 61.2871C76.679 60.0334 76.6018 58.6887 76.0184 57.4955L75.0074 55.1903L78.2551 54.1432C79.8799 53.6015 81.0849 52.2828 81.4784 50.6157C81.8702 48.9554 81.3876 47.244 80.187 46.0341C71.484 36.9357 73.2208 38.743 72.9806 38.5005C71.7982 37.3182 71.1471 35.7459 71.1471 34.0735C71.1471 16.9394 57.2077 3 40.0736 3C34.4905 3 29.0147 4.49823 24.2383 7.33246C23.4614 7.79349 23.2055 8.79684 23.6663 9.57351C24.1274 10.3503 25.1306 10.6063 25.9074 10.1454C30.1789 7.61065 35.0773 6.27089 40.0735 6.27089C55.4038 6.27089 67.876 18.7431 67.876 34.0735C67.876 36.6133 68.8625 39.0014 70.6543 40.8001C79.3574 49.8987 77.6199 48.0905 77.8603 48.3332C78.4417 48.9145 78.3579 49.5976 78.295 49.8642C78.232 50.1311 78.0011 50.7799 77.2359 51.0352L72.2805 52.633C71.8402 52.7749 71.4807 53.0966 71.2909 53.5186C71.101 53.9404 71.0989 54.4228 71.2846 54.8466C72.6129 57.8736 73.0434 58.8591 73.0728 58.918C73.2735 59.3192 73.3015 59.7729 73.1518 60.1955C73.0023 60.6179 72.6952 60.9525 72.2877 61.1378L70.8795 61.7773C70.3912 61.999 70.0425 62.4463 69.9467 62.9742C69.8508 63.5022 70.0201 64.0435 70.3994 64.4228L70.9489 64.9723C71.5864 65.6096 71.5864 66.647 70.9489 67.2845L69.9905 68.2428C69.6839 68.5495 69.5115 68.9655 69.5115 69.3993C69.5115 72.1046 67.3105 74.3056 64.6052 74.3056H58.0634C53.1364 74.3056 49.1441 78.686 48.3822 83.4641H25.5666C26.7413 71.9021 22.9034 64.6169 19.1859 57.5593C15.7861 51.105 12.2709 44.4312 12.2709 34.0735C12.2709 29.0775 13.6106 24.1789 16.1454 19.9072C16.6063 19.1304 16.3502 18.1272 15.5735 17.6662C14.7968 17.2053 13.7933 17.4613 13.3325 18.2381C10.4981 23.0146 9 28.4904 9 34.0735C9 45.24 12.7071 52.2776 16.292 59.0835C20.1317 66.3732 23.7586 73.2586 22.0999 84.8681Z" fill="#F7CD37"/>
</svg>
